<svg xmlns="http://www.w3.org/2000/svg" xmlns:xlink="http://www.w3.org/1999/xlink" width="500" zoomAndPan="magnify" viewBox="0 0 375 374.999991" height="500" preserveAspectRatio="xMidYMid meet" version="1.0"><defs><g/></defs><g fill="#3b7ff4" fill-opacity="1"><g transform="translate(-0.975764, 271.966958)"><g><path d="M 100.898438 -45.125 C 98.355469 -42.582031 95.34375 -40.730469 91.875 -39.109375 C 88.402344 -37.722656 84.929688 -37.257812 81.226562 -37.488281 C 67.34375 -38.183594 60.402344 -51.839844 57.390625 -69.195312 C 56.464844 -75.675781 55.773438 -82.617188 55.773438 -87.941406 C 55.773438 -103.675781 58.78125 -129.363281 83.773438 -129.363281 C 92.335938 -129.363281 99.742188 -125.199219 105.066406 -120.570312 C 115.246094 -113.859375 125.429688 -117.097656 134.457031 -126.125 C 143.480469 -135.378906 144.636719 -145.332031 133.761719 -154.355469 C 122.652344 -163.613281 101.59375 -168.707031 83.542969 -168.707031 C 32.398438 -168.707031 5.089844 -128.667969 5.089844 -85.855469 C 5.089844 -77.527344 5.554688 -70.121094 6.480469 -63.640625 C 11.339844 -27.308594 38.648438 3.007812 80.070312 3.007812 C 109.691406 3.007812 126.125 -2.3125 137.925781 -15.273438 C 144.867188 -22.910156 141.398438 -34.25 133.53125 -42.117188 C 125.429688 -50.21875 111.542969 -54.613281 100.898438 -45.125 Z M 100.898438 -45.125 "/></g></g></g><g fill="#3b7ff4" fill-opacity="1"><g transform="translate(147.794966, 271.966958)"><g><path d="M 13.191406 -10.875 C 13.886719 0.230469 25.6875 1.621094 37.488281 1.621094 C 49.523438 1.621094 59.9375 -1.386719 60.632812 -12.035156 L 62.253906 -106.917969 C 62.253906 -119.875 50.914062 -121.496094 40.265625 -122.191406 C 28.464844 -122.191406 13.191406 -122.191406 13.191406 -108.535156 Z M 65.261719 -141.628906 C 66.878906 -144.636719 67.804688 -147.878906 67.804688 -151.8125 C 67.804688 -168.242188 55.539062 -175.417969 37.722656 -175.417969 C 20.828125 -175.417969 8.5625 -167.78125 8.5625 -151.117188 C 8.5625 -137.695312 21.753906 -127.976562 37.722656 -127.976562 C 49.753906 -127.976562 60.632812 -133.066406 65.261719 -141.628906 Z M 65.261719 -141.628906 "/></g></g></g><g fill="#3b7ff4" fill-opacity="1"><g transform="translate(223.45284, 271.966958)"><g><path d="M 96.964844 -9.949219 C 100.4375 -2.3125 108.304688 1.386719 119.179688 1.386719 C 132.835938 1.386719 145.5625 -3.933594 145.5625 -16.664062 L 147.644531 -153.894531 C 147.644531 -167.546875 135.378906 -168.242188 123.578125 -168.242188 C 111.777344 -168.242188 99.511719 -168.242188 99.511719 -154.355469 L 99.511719 -79.144531 L 63.175781 -156.441406 C 58.316406 -166.390625 46.050781 -169.632812 36.796875 -169.632812 C 26.84375 -169.632812 15.738281 -167.316406 13.886719 -153.894531 L 14.347656 -11.109375 C 15.042969 0.230469 26.613281 1.15625 37.953125 1.15625 C 49.753906 1.15625 60.863281 -1.15625 61.558594 -12.265625 L 60.632812 -80.304688 Z M 96.964844 -9.949219 "/></g></g></g></svg>